<mxfile host="app.diagrams.net" modified="2022-11-01T19:22:08.874Z" agent="5.0 (X11)" etag="rfTYMICmTEdMrbc4M1oT" version="20.5.1" type="github">
  <diagram name="Page-1" id="c9db0220-8083-56f3-ca83-edcdcd058819">
    <mxGraphModel dx="1422" dy="757" grid="1" gridSize="10" guides="1" tooltips="1" connect="1" arrows="1" fold="1" page="1" pageScale="1.5" pageWidth="826" pageHeight="1169" background="#ffffff" math="0" shadow="0">
      <root>
        <mxCell id="0" style=";html=1;" />
        <mxCell id="1" style=";html=1;" parent="0" />
        <mxCell id="4RyJXzWIRlrPyO3bM6e3-7" value="" style="rounded=0;whiteSpace=wrap;html=1;" vertex="1" parent="1">
          <mxGeometry x="260" y="160" width="940" height="610" as="geometry" />
        </mxCell>
        <mxCell id="4RyJXzWIRlrPyO3bM6e3-9" value="" style="rounded=0;whiteSpace=wrap;html=1;fillColor=#e1d5e7;strokeColor=#9673a6;" vertex="1" parent="1">
          <mxGeometry x="20" y="20" width="1180" height="130" as="geometry" />
        </mxCell>
        <mxCell id="4RyJXzWIRlrPyO3bM6e3-11" value="" style="rounded=0;whiteSpace=wrap;html=1;fillColor=default;gradientColor=default;" vertex="1" parent="1">
          <mxGeometry x="20" y="160" width="230" height="730" as="geometry" />
        </mxCell>
        <mxCell id="4RyJXzWIRlrPyO3bM6e3-13" value="" style="rounded=0;whiteSpace=wrap;html=1;fillColor=default;gradientColor=default;" vertex="1" parent="1">
          <mxGeometry x="260" y="780" width="940" height="180" as="geometry" />
        </mxCell>
        <mxCell id="4RyJXzWIRlrPyO3bM6e3-16" value="" style="rounded=1;whiteSpace=wrap;html=1;fillColor=default;gradientColor=default;" vertex="1" parent="1">
          <mxGeometry x="270" y="170" width="920" height="20" as="geometry" />
        </mxCell>
        <mxCell id="4RyJXzWIRlrPyO3bM6e3-19" value="[texto en movimiento] fecha de creacion de la pagina - ultima actualización" style="text;html=1;strokeColor=none;fillColor=none;align=center;verticalAlign=middle;whiteSpace=wrap;rounded=0;labelBackgroundColor=#000000;fontColor=#000000;" vertex="1" parent="1">
          <mxGeometry x="270" y="165" width="920" height="30" as="geometry" />
        </mxCell>
        <mxCell id="4RyJXzWIRlrPyO3bM6e3-20" value="" style="rounded=0;whiteSpace=wrap;html=1;labelBackgroundColor=#000000;fontColor=#000000;fillColor=default;gradientColor=default;" vertex="1" parent="1">
          <mxGeometry x="290" y="210" width="880" height="250" as="geometry" />
        </mxCell>
        <mxCell id="4RyJXzWIRlrPyO3bM6e3-25" value="" style="rounded=0;whiteSpace=wrap;html=1;labelBackgroundColor=#000000;fontColor=#000000;fillColor=default;gradientColor=default;" vertex="1" parent="1">
          <mxGeometry x="290" y="480" width="450" height="270" as="geometry" />
        </mxCell>
        <mxCell id="4RyJXzWIRlrPyO3bM6e3-26" value="" style="rounded=1;whiteSpace=wrap;html=1;labelBackgroundColor=#000000;fillColor=#f8cecc;strokeColor=#b85450;" vertex="1" parent="1">
          <mxGeometry x="300" y="490" width="260" height="250" as="geometry" />
        </mxCell>
        <mxCell id="4RyJXzWIRlrPyO3bM6e3-27" value="" style="rounded=0;whiteSpace=wrap;html=1;labelBackgroundColor=#000000;fontColor=#000000;fillColor=default;gradientColor=default;" vertex="1" parent="1">
          <mxGeometry x="760" y="690" width="410" height="60" as="geometry" />
        </mxCell>
        <mxCell id="4RyJXzWIRlrPyO3bM6e3-28" value="" style="rounded=1;whiteSpace=wrap;html=1;labelBackgroundColor=#000000;fontColor=#000000;fillColor=default;gradientColor=default;" vertex="1" parent="1">
          <mxGeometry x="760" y="480" width="410" height="190" as="geometry" />
        </mxCell>
        <mxCell id="4RyJXzWIRlrPyO3bM6e3-29" value="" style="rounded=0;whiteSpace=wrap;html=1;labelBackgroundColor=#000000;fillColor=#f8cecc;strokeColor=#b85450;" vertex="1" parent="1">
          <mxGeometry x="270" y="790" width="160" height="160" as="geometry" />
        </mxCell>
        <mxCell id="4RyJXzWIRlrPyO3bM6e3-30" value="" style="rounded=0;whiteSpace=wrap;html=1;labelBackgroundColor=#000000;fillColor=#f8cecc;strokeColor=#b85450;" vertex="1" parent="1">
          <mxGeometry x="440" y="790" width="280" height="160" as="geometry" />
        </mxCell>
        <mxCell id="4RyJXzWIRlrPyO3bM6e3-31" value="" style="rounded=0;whiteSpace=wrap;html=1;labelBackgroundColor=#000000;fillColor=#f8cecc;strokeColor=#b85450;" vertex="1" parent="1">
          <mxGeometry x="730" y="790" width="460" height="160" as="geometry" />
        </mxCell>
        <mxCell id="4RyJXzWIRlrPyO3bM6e3-35" value="introduccion a la pagina e informacion basica" style="text;html=1;strokeColor=none;fillColor=none;align=center;verticalAlign=middle;whiteSpace=wrap;rounded=0;labelBackgroundColor=#000000;fontColor=#000000;" vertex="1" parent="1">
          <mxGeometry x="290" y="210" width="880" height="250" as="geometry" />
        </mxCell>
        <mxCell id="4RyJXzWIRlrPyO3bM6e3-37" value="dibujo&amp;nbsp; que incluye un link hacia la version en calidad" style="text;html=1;strokeColor=none;fillColor=none;align=center;verticalAlign=middle;whiteSpace=wrap;rounded=0;labelBackgroundColor=#000000;fontColor=#000000;" vertex="1" parent="1">
          <mxGeometry x="300" y="490" width="260" height="250" as="geometry" />
        </mxCell>
        <mxCell id="4RyJXzWIRlrPyO3bM6e3-38" value="una seccion pequeña con el ultimo dibujo que hice y una descripcion sobre el" style="text;html=1;strokeColor=none;fillColor=none;align=center;verticalAlign=middle;whiteSpace=wrap;rounded=0;labelBackgroundColor=#000000;fontColor=#000000;" vertex="1" parent="1">
          <mxGeometry x="570" y="480" width="170" height="270" as="geometry" />
        </mxCell>
        <mxCell id="4RyJXzWIRlrPyO3bM6e3-39" value="" style="rounded=1;whiteSpace=wrap;html=1;labelBackgroundColor=#000000;fillColor=#f8cecc;strokeColor=#b85450;" vertex="1" parent="1">
          <mxGeometry x="770" y="490" width="260" height="170" as="geometry" />
        </mxCell>
        <mxCell id="4RyJXzWIRlrPyO3bM6e3-40" value="canción de la semana" style="text;html=1;strokeColor=none;fillColor=none;align=center;verticalAlign=middle;whiteSpace=wrap;rounded=0;labelBackgroundColor=#000000;fontColor=#000000;" vertex="1" parent="1">
          <mxGeometry x="870" y="560" width="60" height="30" as="geometry" />
        </mxCell>
        <mxCell id="4RyJXzWIRlrPyO3bM6e3-41" value="breve&amp;nbsp; descripcion sobre la cancion que elegi" style="text;html=1;strokeColor=none;fillColor=none;align=center;verticalAlign=middle;whiteSpace=wrap;rounded=0;labelBackgroundColor=#000000;fontColor=#000000;" vertex="1" parent="1">
          <mxGeometry x="1060" y="560" width="90" height="30" as="geometry" />
        </mxCell>
        <mxCell id="4RyJXzWIRlrPyO3bM6e3-42" value="" style="rounded=1;whiteSpace=wrap;html=1;labelBackgroundColor=#000000;fillColor=#ffe6cc;strokeColor=#d79b00;" vertex="1" parent="1">
          <mxGeometry x="30" y="130" width="210" height="100" as="geometry" />
        </mxCell>
        <mxCell id="4RyJXzWIRlrPyO3bM6e3-44" value="" style="edgeStyle=orthogonalEdgeStyle;rounded=0;orthogonalLoop=1;jettySize=auto;html=1;fontColor=#000000;" edge="1" parent="1" source="4RyJXzWIRlrPyO3bM6e3-43" target="4RyJXzWIRlrPyO3bM6e3-7">
          <mxGeometry relative="1" as="geometry" />
        </mxCell>
        <mxCell id="4RyJXzWIRlrPyO3bM6e3-46" style="edgeStyle=orthogonalEdgeStyle;rounded=0;orthogonalLoop=1;jettySize=auto;html=1;fontColor=#000000;" edge="1" parent="1" source="4RyJXzWIRlrPyO3bM6e3-43">
          <mxGeometry relative="1" as="geometry">
            <mxPoint x="110" y="330" as="targetPoint" />
          </mxGeometry>
        </mxCell>
        <mxCell id="4RyJXzWIRlrPyO3bM6e3-43" value="" style="rounded=1;whiteSpace=wrap;html=1;labelBackgroundColor=#000000;fontColor=#000000;fillColor=default;gradientColor=none;" vertex="1" parent="1">
          <mxGeometry x="30" y="250" width="210" height="70" as="geometry" />
        </mxCell>
        <mxCell id="4RyJXzWIRlrPyO3bM6e3-47" value="" style="rounded=1;whiteSpace=wrap;html=1;labelBackgroundColor=#000000;fontColor=#000000;fillColor=default;gradientColor=none;" vertex="1" parent="1">
          <mxGeometry x="30" y="330" width="210" height="70" as="geometry" />
        </mxCell>
        <mxCell id="4RyJXzWIRlrPyO3bM6e3-48" value="" style="rounded=1;whiteSpace=wrap;html=1;labelBackgroundColor=#000000;fontColor=#000000;fillColor=default;gradientColor=none;" vertex="1" parent="1">
          <mxGeometry x="30" y="410" width="210" height="70" as="geometry" />
        </mxCell>
        <mxCell id="4RyJXzWIRlrPyO3bM6e3-49" style="edgeStyle=orthogonalEdgeStyle;rounded=0;orthogonalLoop=1;jettySize=auto;html=1;fontColor=#000000;" edge="1" source="4RyJXzWIRlrPyO3bM6e3-50" parent="1">
          <mxGeometry relative="1" as="geometry">
            <mxPoint x="110" y="570" as="targetPoint" />
          </mxGeometry>
        </mxCell>
        <mxCell id="4RyJXzWIRlrPyO3bM6e3-50" value="" style="rounded=1;whiteSpace=wrap;html=1;labelBackgroundColor=#000000;fontColor=#000000;fillColor=default;gradientColor=none;" vertex="1" parent="1">
          <mxGeometry x="30" y="490" width="210" height="70" as="geometry" />
        </mxCell>
        <mxCell id="4RyJXzWIRlrPyO3bM6e3-51" value="" style="rounded=1;whiteSpace=wrap;html=1;labelBackgroundColor=#000000;fontColor=#000000;fillColor=default;gradientColor=none;" vertex="1" parent="1">
          <mxGeometry x="30" y="570" width="210" height="70" as="geometry" />
        </mxCell>
        <mxCell id="4RyJXzWIRlrPyO3bM6e3-52" value="" style="rounded=1;whiteSpace=wrap;html=1;labelBackgroundColor=#000000;fontColor=#000000;fillColor=default;gradientColor=none;" vertex="1" parent="1">
          <mxGeometry x="30" y="650" width="210" height="70" as="geometry" />
        </mxCell>
        <mxCell id="4RyJXzWIRlrPyO3bM6e3-53" style="edgeStyle=orthogonalEdgeStyle;rounded=0;orthogonalLoop=1;jettySize=auto;html=1;fontColor=#000000;" edge="1" source="4RyJXzWIRlrPyO3bM6e3-54" parent="1">
          <mxGeometry relative="1" as="geometry">
            <mxPoint x="110" y="810" as="targetPoint" />
          </mxGeometry>
        </mxCell>
        <mxCell id="4RyJXzWIRlrPyO3bM6e3-54" value="" style="rounded=0;whiteSpace=wrap;html=1;labelBackgroundColor=#000000;fontColor=#000000;fillColor=default;gradientColor=none;" vertex="1" parent="1">
          <mxGeometry x="30" y="730" width="210" height="230" as="geometry" />
        </mxCell>
        <mxCell id="4RyJXzWIRlrPyO3bM6e3-57" style="edgeStyle=orthogonalEdgeStyle;rounded=0;orthogonalLoop=1;jettySize=auto;html=1;fontColor=#000000;" edge="1" parent="1" source="4RyJXzWIRlrPyO3bM6e3-11" target="4RyJXzWIRlrPyO3bM6e3-11">
          <mxGeometry relative="1" as="geometry" />
        </mxCell>
        <mxCell id="4RyJXzWIRlrPyO3bM6e3-58" value="HEADER" style="text;html=1;strokeColor=none;fillColor=none;align=center;verticalAlign=middle;whiteSpace=wrap;rounded=0;labelBackgroundColor=none;fontColor=#000000;" vertex="1" parent="1">
          <mxGeometry x="590" y="70" width="60" height="30" as="geometry" />
        </mxCell>
        <mxCell id="4RyJXzWIRlrPyO3bM6e3-59" value="NAVEGADOR" style="text;html=1;strokeColor=none;fillColor=none;align=center;verticalAlign=middle;whiteSpace=wrap;rounded=0;labelBackgroundColor=none;fontColor=#000000;" vertex="1" parent="1">
          <mxGeometry x="105" y="165" width="60" height="30" as="geometry" />
        </mxCell>
        <mxCell id="4RyJXzWIRlrPyO3bM6e3-60" value="PRINCIPAL" style="text;html=1;strokeColor=none;fillColor=none;align=center;verticalAlign=middle;whiteSpace=wrap;rounded=0;labelBackgroundColor=none;fontColor=#000000;" vertex="1" parent="1">
          <mxGeometry x="105" y="270" width="60" height="30" as="geometry" />
        </mxCell>
        <mxCell id="4RyJXzWIRlrPyO3bM6e3-61" value="SOBRE MI" style="text;html=1;strokeColor=none;fillColor=none;align=center;verticalAlign=middle;whiteSpace=wrap;rounded=0;labelBackgroundColor=none;fontColor=#000000;" vertex="1" parent="1">
          <mxGeometry x="105" y="350" width="60" height="30" as="geometry" />
        </mxCell>
        <mxCell id="4RyJXzWIRlrPyO3bM6e3-63" value="ARTE" style="text;html=1;strokeColor=none;fillColor=none;align=center;verticalAlign=middle;whiteSpace=wrap;rounded=0;labelBackgroundColor=none;fontColor=#000000;" vertex="1" parent="1">
          <mxGeometry x="105" y="430" width="60" height="30" as="geometry" />
        </mxCell>
        <mxCell id="4RyJXzWIRlrPyO3bM6e3-64" value="MUSICA" style="text;html=1;strokeColor=none;fillColor=none;align=center;verticalAlign=middle;whiteSpace=wrap;rounded=0;labelBackgroundColor=none;fontColor=#000000;" vertex="1" parent="1">
          <mxGeometry x="105" y="510" width="60" height="30" as="geometry" />
        </mxCell>
        <mxCell id="4RyJXzWIRlrPyO3bM6e3-65" value="OCS WIKI" style="text;html=1;strokeColor=none;fillColor=none;align=center;verticalAlign=middle;whiteSpace=wrap;rounded=0;labelBackgroundColor=none;fontColor=#000000;" vertex="1" parent="1">
          <mxGeometry x="105" y="590" width="60" height="30" as="geometry" />
        </mxCell>
        <mxCell id="4RyJXzWIRlrPyO3bM6e3-66" value="HISTORIAL" style="text;html=1;strokeColor=none;fillColor=none;align=center;verticalAlign=middle;whiteSpace=wrap;rounded=0;labelBackgroundColor=none;fontColor=#000000;" vertex="1" parent="1">
          <mxGeometry x="105" y="670" width="60" height="30" as="geometry" />
        </mxCell>
        <mxCell id="4RyJXzWIRlrPyO3bM6e3-68" value="PAGEDOLL" style="text;html=1;strokeColor=none;fillColor=none;align=center;verticalAlign=middle;whiteSpace=wrap;rounded=0;labelBackgroundColor=none;fontColor=#000000;" vertex="1" parent="1">
          <mxGeometry x="105" y="830" width="60" height="30" as="geometry" />
        </mxCell>
        <mxCell id="4RyJXzWIRlrPyO3bM6e3-69" value="botones decorativos" style="text;html=1;strokeColor=none;fillColor=none;align=center;verticalAlign=middle;whiteSpace=wrap;rounded=0;labelBackgroundColor=default;fontColor=#000000;" vertex="1" parent="1">
          <mxGeometry x="760" y="705" width="410" height="30" as="geometry" />
        </mxCell>
        <mxCell id="4RyJXzWIRlrPyO3bM6e3-70" value="CENSOR PANDA" style="text;html=1;strokeColor=none;fillColor=none;align=center;verticalAlign=middle;whiteSpace=wrap;rounded=0;labelBackgroundColor=default;fontColor=#000000;" vertex="1" parent="1">
          <mxGeometry x="320" y="855" width="60" height="30" as="geometry" />
        </mxCell>
        <mxCell id="4RyJXzWIRlrPyO3bM6e3-71" value="links de interes" style="text;html=1;strokeColor=none;fillColor=none;align=center;verticalAlign=middle;whiteSpace=wrap;rounded=0;labelBackgroundColor=default;fontColor=#000000;" vertex="1" parent="1">
          <mxGeometry x="935" y="855" width="60" height="30" as="geometry" />
        </mxCell>
        <mxCell id="4RyJXzWIRlrPyO3bM6e3-72" value="boton personal" style="text;html=1;strokeColor=none;fillColor=none;align=center;verticalAlign=middle;whiteSpace=wrap;rounded=0;labelBackgroundColor=default;fontColor=#000000;" vertex="1" parent="1">
          <mxGeometry x="550" y="855" width="60" height="30" as="geometry" />
        </mxCell>
      </root>
    </mxGraphModel>
  </diagram>
</mxfile>
